<?xml version="1.0" standalone="no"?>
<!DOCTYPE svg PUBLIC "-//W3C//DTD SVG 20010904//EN"
 "http://www.w3.org/TR/2001/REC-SVG-20010904/DTD/svg10.dtd">
<svg version="1.0" xmlns="http://www.w3.org/2000/svg"
 width="2188.000000pt" height="2188.000000pt" viewBox="0 0 2188.000000 2188.000000"
 preserveAspectRatio="xMidYMid meet">
<metadata>
Created by potrace 1.14, written by Peter Selinger 2001-2017
</metadata>
<g transform="translate(0.000000,2188.000000) scale(0.100000,-0.100000)"
fill="#000000" stroke="none">
<path d="M3337 20243 c-1 -1 -31 -3 -67 -4 -104 -4 -155 -18 -255 -72 -22 -11
-45 -26 -51 -31 -6 -6 -26 -22 -44 -36 -40 -30 -110 -128 -138 -192 -11 -26
-26 -73 -33 -105 -9 -46 -12 -1472 -12 -6653 0 -3627 3 -6622 6 -6656 18 -169
137 -334 300 -414 45 -22 107 -45 137 -50 36 -7 2704 -9 7795 -8 l7740 3 68
27 c169 68 294 204 339 370 20 72 20 121 20 6683 1 3636 -2 6633 -5 6660 -32
252 -244 452 -500 471 -68 5 -15295 12 -15300 7z m14714 -1118 c0 -11 1 -2718
1 -6015 l1 -5995 -7112 -3 c-5685 -2 -7111 0 -7112 10 -1 16 -1 11987 0 12008
1 14 735 16 7111 16 l7110 -1 1 -20z"/>
<path d="M6450 16404 c-121 -27 -197 -68 -280 -153 -130 -132 -184 -309 -150
-492 13 -73 74 -192 124 -247 23 -25 187 -167 366 -315 179 -149 327 -273 330
-276 3 -4 28 -24 55 -46 28 -21 52 -42 55 -45 3 -3 50 -43 105 -89 55 -46 109
-90 120 -100 11 -9 114 -95 229 -190 226 -188 228 -190 297 -247 67 -57 909
-760 1018 -849 13 -11 28 -25 35 -30 6 -6 62 -53 125 -104 l114 -95 -24 -19
c-13 -10 -46 -38 -74 -62 -41 -35 -561 -468 -725 -603 -24 -20 -128 -107 -230
-192 -102 -85 -207 -172 -232 -193 -26 -21 -53 -43 -60 -50 -11 -10 -51 -44
-153 -129 -11 -9 -123 -102 -250 -208 -126 -105 -239 -198 -250 -207 -11 -10
-76 -64 -145 -121 -69 -57 -147 -123 -175 -147 -27 -23 -72 -61 -100 -82 -183
-147 -436 -367 -468 -409 -134 -175 -147 -418 -32 -609 114 -190 332 -293 545
-259 150 25 206 58 430 251 14 11 192 160 395 329 204 169 390 324 415 345 85
71 317 264 365 304 66 54 298 248 360 300 28 23 97 82 155 129 58 48 114 95
125 104 304 253 579 481 645 536 47 39 90 76 96 81 6 6 22 19 36 30 13 11 48
41 78 66 30 25 82 68 116 95 33 27 87 72 119 99 87 75 136 116 191 160 172
139 245 276 246 464 1 125 -45 254 -125 348 -23 26 -237 211 -477 411 -239
199 -453 377 -474 394 -21 18 -125 104 -230 191 -105 88 -213 178 -241 202
-27 23 -111 93 -185 154 -74 62 -144 120 -155 129 -11 9 -72 60 -135 112 -137
114 -159 132 -174 145 -6 6 -36 30 -66 55 -30 25 -57 47 -60 50 -3 3 -111 93
-240 200 -129 107 -237 197 -240 200 -3 3 -30 25 -60 50 -30 24 -89 73 -130
108 -41 34 -82 68 -90 75 -8 7 -59 50 -115 96 -55 45 -120 99 -144 120 -49 40
-119 100 -138 118 -32 29 -134 83 -196 103 -79 26 -189 31 -267 14z"/>
<path d="M12017 10944 c-1 -1 -29 -5 -62 -9 -127 -14 -228 -65 -325 -164 -106
-108 -160 -246 -154 -391 1 -41 5 -85 8 -96 37 -162 145 -302 289 -375 128
-65 8 -61 1902 -61 1907 -1 1777 -5 1909 65 88 46 186 148 230 238 20 41 38
84 41 97 3 12 7 32 10 45 10 44 8 164 -5 218 -47 200 -208 364 -406 414 -54
14 -272 16 -1748 18 -928 1 -1688 1 -1689 1z"/>
</g>
</svg>
